<svg xmlns="http://www.w3.org/2000/svg" viewBox="0 0 200 200" width="200" height="200">
  <defs>
    <linearGradient id="waterGrad" x1="0%" y1="0%" x2="100%" y2="100%">
      <stop offset="0%" style="stop-color:#0284c7;stop-opacity:1" />
      <stop offset="100%" style="stop-color:#0369a1;stop-opacity:1" />
    </linearGradient>
    <linearGradient id="dropGrad" x1="0%" y1="0%" x2="0%" y2="100%">
      <stop offset="0%" style="stop-color:#38bdf8;stop-opacity:1" />
      <stop offset="100%" style="stop-color:#0ea5e9;stop-opacity:1" />
    </linearGradient>
  </defs>
  <circle cx="100" cy="100" r="95" fill="url(#waterGrad)" />
  <circle cx="100" cy="100" r="90" fill="none" stroke="#e0f2fe" stroke-width="2" opacity="0.5" />
  <path d="M100 35 C100 35, 135 85, 135 110 C135 129, 119 145, 100 145 C81 145, 65 129, 65 110 C65 85, 100 35, 100 35Z" fill="url(#dropGrad)" opacity="0.9"/>
  <path d="M75 120 Q85 110, 95 120 Q105 130, 115 120 Q125 110, 130 118" fill="none" stroke="#ffffff" stroke-width="2" opacity="0.6"/>
  <text x="100" y="170" text-anchor="middle" fill="#ffffff" font-family="Arial, sans-serif" font-size="18" font-weight="bold">غيل الضياء</text>
  <text x="100" y="188" text-anchor="middle" fill="#bae6fd" font-family="Arial, sans-serif" font-size="10">مياه الشرب</text>
</svg>
